<svg xmlns="http://www.w3.org/2000/svg" xmlns:xlink="http://www.w3.org/1999/xlink" width="116" height="21" viewBox="0 0 116 21">
  <defs>
    <polygon id="logo-blue-left-a" points=".205 .236 13.815 .236 13.815 16.769 .205 16.769 .205 .236"/>
    <polygon id="logo-blue-left-c" points="54.559 3.6 .114 3.6 .114 .039 54.559 .039"/>
    <polygon id="logo-blue-left-e" points="2.887 2.407 2.887 .239 .076 .239 .076 2.407 2.887 2.407"/>
  </defs>
  <g fill="none" fill-rule="evenodd">
    <g transform="translate(30.9 .064)">
      <mask id="logo-blue-left-b" fill="#fff">
        <use xlink:href="#logo-blue-left-a"/>
      </mask>
      <path fill="#214155" d="M13.81479,0.89475 L13.02849,6.99375 C12.03669,5.91735 10.98099,5.37855 9.86199,5.37855 C8.98359,5.37855 8.18649,5.68335 7.47129,6.29265 C6.75579,6.90165 6.33429,7.63845 6.20679,8.50245 C6.06489,9.38115 6.26709,10.12125 6.81249,10.72335 C7.35789,11.32575 8.06979,11.62665 8.94819,11.62665 C10.16649,11.62665 11.36349,11.13075 12.53979,10.13895 L11.41329,16.13175 C10.95969,16.33035 10.29759,16.48605 9.42639,16.59915 C8.55519,16.71255 7.80069,16.76925 7.16319,16.76925 C5.66139,16.76925 4.34379,16.41165 3.21039,15.69585 C2.07699,14.98095 1.25169,14.00325 0.73479,12.76335 C0.21729,11.52375 0.07929,10.15305 0.32049,8.65125 C0.56109,7.12125 1.15239,5.71185 2.09499,4.42245 C3.03669,3.13335 4.20909,2.11335 5.61189,1.36215 C7.01439,0.61155 8.48079,0.23595 10.01079,0.23595 C11.34219,0.23595 12.61029,0.45585 13.81479,0.89475" mask="url(#logo-blue-left-b)"/>
    </g>
    <path fill="#214155" d="M98.12928,12.94212 C99.01428,12.94212 99.78318,12.65502 100.43508,12.08142 C101.08638,11.50752 101.48328,10.76742 101.62488,9.86082 C101.76648,8.98242 101.61048,8.24202 101.15748,7.63992 C100.70388,7.03782 100.02738,6.73662 99.12798,6.73662 C98.22798,6.73662 97.45608,7.03782 96.81138,7.63992 C96.16668,8.24202 95.77338,8.98242 95.63238,9.86082 C95.49048,10.76742 95.64978,11.50752 96.11058,12.08142 C96.57078,12.65502 97.24368,12.94212 98.12928,12.94212"/>
    <path fill="#214155" d="M79.78761.60366L79.64841 1.42146 89.64951 1.42146 88.96941 5.79906 84.06051 5.79906 83.80551 7.32936 88.28961 7.32936 87.63051 11.49456 83.14671 11.49456 82.91301 13.06686 87.99171 13.06686 87.38091 16.88196 92.82861 16.88196C92.30031 16.58046 91.82361 16.23156 91.41381 15.82146 90.72651 15.13446 90.23091 14.27016 89.92611 13.22886 89.62161 12.18786 89.56851 11.03676 89.76681 9.77556 90.03591 8.14656 90.67011 6.69096 91.66911 5.40846 92.66781 4.12656 93.89301 3.14886 95.34531 2.47596 96.79731 1.80306 98.33121 1.46646 99.94641 1.46646 101.16441 1.46646 102.28011 1.66506 103.29321 2.06166 104.30601 2.45826 105.15951 3.01086 105.85401 3.71916 106.54791 4.42776 107.04411 5.30586 107.34141 6.35406 107.63901 7.40286 107.68851 8.54316 107.49021 9.77556 107.23521 11.44746 106.60461 12.91356 105.59871 14.17476 104.66691 15.34266 103.55061 16.24266 102.25401 16.88196L107.40951 16.88196 110.17791.60366 79.78761.60366zM3.31467 16.57824L3.66147 16.57824C5.05947 16.25004 6.89247 15.90744 9.15507 15.65334L10.09377 9.67164 17.02137.55494 10.47627.55494 8.90367 3.23274C8.80437 3.41694 8.54937 3.92004 8.13867 4.74144L7.96857 4.74144 6.84237.55494.25437.55494 4.39857 9.67164 3.31467 16.57824zM22.73466 5.88897L22.94706 5.88897C22.94706 6.83847 22.96116 7.52547 22.98966 7.95027L23.22336 10.77657 20.88576 10.77657 22.73466 5.88897zM18.94416 15.35637L19.24956 14.58087 23.64846 14.58087 23.76966 15.72027C25.04886 15.85047 26.37216 16.00857 27.75096 16.20507 28.52466 16.31547 29.27616 16.41657 30.01026 16.51047L26.83596.55497 20.39706.55497 12.94866 15.29547C14.76936 15.24087 16.76736 15.25227 18.94416 15.35637L18.94416 15.35637zM54.4344 16.57821L54.4437 16.57821C56.7408 15.59331 60.2826 15.07191 60.2826 15.07191L62.5737.55491 56.9634.55491 56.1132 5.95281 52.5432 5.95281 53.3931.55491 47.7828.55491 45.2541 16.57821 50.8644 16.57821 51.7569 11.01021 55.3272 11.01021 54.4344 16.57821zM66.00225 15.14943C67.77435 15.09033 69.71355 15.10203 71.81565 15.21003L73.42755 5.61273 76.61505 5.76123 77.42265.55473 65.18205.55473 64.37445 5.76123 67.60455 5.61273 66.00225 15.14943zM0 19.04706C0 19.04706 8.1216 15.48066 24.1836 17.22036 40.2456 18.96006 42.9504 18.78336 54.4455 17.89476 54.4455 17.89476 45.3492 21.80976 28.4457 19.65606 7.6254 17.00316 0 19.04706 0 19.04706"/>
    <g transform="translate(53.7 17.164)">
      <mask id="logo-blue-left-d" fill="#fff">
        <use xlink:href="#logo-blue-left-c"/>
      </mask>
      <path fill="#214155" d="M0.11397,2.34429 C0.11397,2.34429 8.23557,-1.22211 24.29757,0.51759 C40.35957,2.25729 43.06437,2.08059 54.55947,1.19169 C54.55947,1.19169 45.46317,5.10699 28.55967,2.95329 C7.73937,0.30039 0.11397,2.34429 0.11397,2.34429" mask="url(#logo-blue-left-d)"/>
    </g>
    <g transform="translate(111.391 .304)">
      <polygon fill="#214155" points="1.173 .782 .898 2.474 .318 2.474 .593 .782 .114 .782 .191 .305 1.729 .305 1.652 .782"/>
      <g transform="translate(1.61 .066)">
        <mask id="logo-blue-left-f" fill="#fff">
          <use xlink:href="#logo-blue-left-e"/>
        </mask>
        <polygon fill="#214155" points=".076 2.407 .807 .239 1.378 .239 1.644 1.398 2.31 .239 2.887 .239 2.872 2.407 2.292 2.407 2.334 1.159 2.328 1.159 1.588 2.407 1.357 2.407 1.05 1.159 1.044 1.159 .653 2.407" mask="url(#logo-blue-left-f)"/>
      </g>
    </g>
  </g>
</svg>
