<svg xmlns="http://www.w3.org/2000/svg" width="33" height="33" viewBox="0 0 33 33">
  <path fill="#214155" fill-rule="evenodd" d="M73.7231785,74.5242353 L68.7221787,69.5232354 C68.7487307,69.4658248 68.7735193,69.4074307 68.795629,69.3477481 L75.8715508,69.3477481 C75.6957921,71.3067974 74.9174082,73.0947 73.7231785,74.5242353 L73.7231785,74.5242353 Z M67.347782,77.8715847 L67.347782,70.7955951 C67.4074646,70.7734854 67.4658248,70.7486968 67.5232354,70.7221448 L72.5242692,75.7231446 C71.0947339,76.9174082 69.3068313,77.6957921 67.347782,77.8715847 L67.347782,77.8715847 Z M65.6522519,77.8715847 C63.6931687,77.6957921 61.9052661,76.9174082 60.4757308,75.7231785 L65.4767646,70.7221448 C65.5341752,70.7486968 65.5925354,70.7734854 65.6522519,70.795629 L65.6522519,77.8715847 Z M57.1284153,69.3477481 L64.204371,69.3477481 C64.2264807,69.4074646 64.2512693,69.4658248 64.2778213,69.5232694 L59.2768215,74.5242692 C58.0825579,73.0947339 57.304174,71.3068313 57.1284153,69.3477481 L57.1284153,69.3477481 Z M59.2767876,62.4757308 L64.2778213,67.4767306 C64.2512693,67.5341413 64.2264807,67.5925354 64.2043371,67.652218 L57.1284153,67.652218 C57.304174,65.6931687 58.0825579,63.9052661 59.2767876,62.4757308 L59.2767876,62.4757308 Z M65.652218,59.1283814 L65.652218,66.2043371 C65.5925014,66.2264807 65.5341413,66.2512693 65.4767306,66.2778213 L60.4757308,61.2768215 C61.9052322,60.0825579 63.6931347,59.304174 65.652218,59.1283814 L65.652218,59.1283814 Z M66.499983,67.5129133 C67.0442821,67.5129133 67.4870528,67.9557179 67.4870528,68.4999491 C67.4870528,69.0442482 67.0442821,69.4870528 66.499983,69.4870528 C65.9557179,69.4870528 65.5129133,69.0442482 65.5129133,68.4999491 C65.5129133,67.9557179 65.9557179,67.5129133 66.499983,67.5129133 L66.499983,67.5129133 Z M67.3477481,59.1283814 C69.3067974,59.304174 71.0947339,60.0825579 72.5242353,61.2767876 L67.5232354,66.2778213 C67.4658248,66.2512693 67.4074307,66.2264807 67.3477481,66.2043371 L67.3477481,59.1283814 Z M75.8715508,67.652218 L68.795629,67.652218 C68.7734854,67.5925014 68.7486968,67.5341413 68.7221448,67.4767306 L73.7231446,62.4757308 C74.9174082,63.9052322 75.6957921,65.6931347 75.8715508,67.652218 L75.8715508,67.652218 Z M81.7456469,67.2452908 C81.1804589,67.2452908 80.6748518,67.6132208 80.1913884,67.790675 C79.7675397,67.9462568 79.3535252,68.0025823 79.2263605,67.8147176 C79.2263605,67.8147176 79.1691194,67.7638517 79.1199829,67.5047408 C79.0744071,67.2646198 78.8864067,67.1492221 78.6625967,67.1492221 L78.3092143,67.1492221 C78.1820496,66.0213555 77.8955389,64.9239067 77.4511066,63.8731528 C77.0285466,62.8741125 76.4768211,61.9474715 75.8054251,61.1048269 L76.0553801,60.8548719 C76.2136409,60.6966111 76.2649815,60.4820587 76.1274062,60.2800533 C75.9789456,60.0620759 75.9834557,59.9856414 75.9834557,59.9856414 C75.9405249,59.7628827 76.2730862,59.5099435 76.682828,59.3202476 C77.1501839,59.1038641 77.7678316,59.0065406 78.1675019,58.6069042 C78.6574423,58.1169299 78.657171,57.3227097 78.1672646,56.8327354 C77.6772564,56.3427951 76.8830701,56.3425238 76.3930958,56.8324981 C75.9934594,57.2321345 75.896102,57.8497822 75.6797185,58.3171381 C75.4900226,58.7268799 75.2371173,59.0594412 75.0143247,59.0165104 C75.0143247,59.0165104 74.9378902,59.0210205 74.7199467,58.8725598 C74.5179413,58.7349845 74.303355,58.7863252 74.1450942,58.944586 L73.8951731,59.194541 C73.0525285,58.523145 72.1258535,57.9714195 71.1267794,57.5488595 C70.0760594,57.1044272 68.9786106,56.8179165 67.8507779,56.6907518 L67.8507779,56.3373694 C67.8507779,56.1135594 67.7353463,55.925559 67.4952253,55.8800171 C67.2361483,55.8308467 67.1852824,55.7736056 67.1852824,55.7736056 C66.9973837,55.6464409 67.0537093,55.2324263 67.2092911,54.8085777 C67.3867453,54.3251143 67.7546753,53.8195072 67.7546753,53.2543531 C67.7546753,52.5614239 67.1929123,52.0000339 66.499983,52 C65.8070877,52.0000339 65.2452908,52.5614239 65.2452908,53.2543531 C65.2452908,53.8195072 65.6132208,54.3251143 65.7907089,54.8085777 C65.9462907,55.2324263 66.0026163,55.6464409 65.8147176,55.7736056 C65.8147176,55.7736056 65.7638517,55.8308467 65.5047747,55.8800171 C65.2646537,55.925559 65.1492221,56.1135594 65.1492221,56.3373694 L65.1492221,56.6907518 C64.0213555,56.8179165 62.9239067,57.1044272 61.8731867,57.5488595 C60.8741125,57.9714195 59.9474715,58.523145 59.1048269,59.194541 L58.8548719,58.944586 C58.6966111,58.7863252 58.4820587,58.7349845 58.2800533,58.8725598 C58.0620759,59.0210205 57.9856414,59.0165104 57.9856414,59.0165104 C57.7628827,59.0594751 57.5099435,58.7268799 57.3202476,58.3171381 C57.1038641,57.8497822 57.0065406,57.2321345 56.6069042,56.8324981 C56.1169299,56.3425238 55.3227097,56.3427951 54.8327354,56.8327354 C54.3427951,57.3227097 54.3425238,58.1169299 54.8324981,58.6069042 C55.2321345,59.0065406 55.8498161,59.1038641 56.317172,59.3202476 C56.7268799,59.5099435 57.0594751,59.7628827 57.0165443,59.9856414 C57.0165443,59.9856414 57.0210205,60.0620759 56.8725938,60.2800533 C56.7350185,60.4820587 56.7863252,60.6966111 56.944586,60.8548719 L57.194541,61.1048269 C56.5231789,61.9474715 55.9714534,62.8741125 55.5488595,63.8731528 C55.1044272,64.9239067 54.8179504,66.0213555 54.6907518,67.1492221 L54.3374033,67.1492221 C54.1135933,67.1492221 53.925559,67.2646198 53.8800171,67.5047408 C53.8308467,67.7638517 53.7736395,67.8147176 53.7736395,67.8147176 C53.6464748,68.0025823 53.2324263,67.9462568 52.8085777,67.790675 C52.3251143,67.6132208 51.8195411,67.2452908 51.2543531,67.2452908 C50.5614239,67.2452908 50.0000339,67.8070877 50,68.499983 C50.0000339,69.1928784 50.5614239,69.7546753 51.2543531,69.7546753 C51.8195411,69.7546753 52.3251143,69.3867453 52.8085777,69.2092911 C53.2324263,69.0537093 53.6464748,68.9973837 53.7736395,69.1852485 C53.7736395,69.1852485 53.8308467,69.2361144 53.8800171,69.4952253 C53.925559,69.7353463 54.1135933,69.850744 54.3374033,69.850744 L54.6907518,69.850744 C54.8179504,70.9786106 55.1044272,72.0760594 55.5488595,73.1268133 C55.9714534,74.1258535 56.5231789,75.0524946 57.194541,75.8951731 L56.944586,76.1450942 C56.7863252,76.303355 56.7350185,76.5179074 56.8725938,76.7199128 C57.0210205,76.9378902 57.0165443,77.0143247 57.0165443,77.0143247 C57.0594751,77.2370834 56.7268799,77.4900226 56.317172,77.6797185 C55.8498161,77.896102 55.2321345,77.9934255 54.8324981,78.3930958 C54.3425238,78.8830362 54.3427951,79.6772564 54.8327354,80.1672306 C55.3227097,80.657171 56.1169299,80.6574423 56.6069042,80.167468 C57.0065406,79.7678316 57.1038641,79.1501839 57.3202476,78.682828 C57.5099435,78.2730862 57.7628827,77.9405249 57.9856414,77.9834557 C57.9856414,77.9834557 58.0620759,77.9789456 58.2800533,78.1274062 C58.4820587,78.2649815 58.6966111,78.2136409 58.8548719,78.0553801 L59.104793,77.805459 C59.9474715,78.4768211 60.8741125,79.0285466 61.8731867,79.4511066 C62.9239067,79.8955389 64.0213555,80.1820496 65.1492221,80.3092482 L65.1492221,80.6625967 C65.1492221,80.8864067 65.2646537,81.0744071 65.5047747,81.1199829 C65.7638517,81.1691194 65.8147176,81.2263605 65.8147176,81.2263605 C66.0026163,81.3535252 65.9462907,81.7675397 65.7907089,82.1913884 C65.6132208,82.6748518 65.2452908,83.1804589 65.2452908,83.7456129 C65.2452908,84.4385422 65.8070877,84.9999322 66.499983,84.9999661 C67.1929123,84.9999322 67.7546753,84.4385422 67.7546753,83.7456129 C67.7546753,83.1804589 67.3867453,82.6748518 67.2092911,82.1913884 C67.0537093,81.7675397 66.9973837,81.3535252 67.1852824,81.2263605 C67.1852824,81.2263605 67.2361483,81.1691194 67.4952253,81.1199829 C67.7353463,81.0744071 67.8507779,80.8864067 67.8507779,80.6625967 L67.8507779,80.3092482 C68.9786106,80.1820496 70.0760594,79.8955389 71.1267794,79.4511066 C72.1258535,79.0285466 73.0525285,78.4768211 73.8951731,77.805459 L74.1451281,78.0553801 C74.303355,78.2136409 74.5179413,78.2649815 74.7199467,78.1274062 C74.9378902,77.9789456 75.0143247,77.9834557 75.0143247,77.9834557 C75.2371173,77.9405249 75.4900226,78.2730862 75.6797185,78.682828 C75.896102,79.1501839 75.9934594,79.7678316 76.3930958,80.167468 C76.8830701,80.6574423 77.6772564,80.657171 78.1672646,80.1672306 C78.657171,79.6772564 78.6574423,78.8830362 78.1675019,78.3930619 C77.7678655,77.9934255 77.1501839,77.896102 76.682828,77.6797185 C76.2730862,77.4900226 75.9405249,77.2370834 75.9834557,77.0143247 C75.9834557,77.0143247 75.9789456,76.9378902 76.1274062,76.7199128 C76.2649815,76.5179074 76.2136409,76.303355 76.0553801,76.1450942 L75.805459,75.8951731 C76.4768211,75.0524946 77.0285466,74.1258535 77.4511066,73.1268133 C77.8955389,72.0760594 78.1820496,70.9786106 78.3092143,69.850744 L78.6625967,69.850744 C78.8864067,69.850744 79.0744071,69.7353463 79.1199829,69.4952253 C79.1691194,69.2361144 79.2263605,69.1852485 79.2263605,69.1852485 C79.3535252,68.9973837 79.7675397,69.0537093 80.1913884,69.2092911 C80.6748518,69.3867453 81.1804589,69.7546753 81.7456469,69.7546753 C82.4385422,69.7546753 82.9999322,69.1928784 83,68.499983 C82.9999322,67.8070877 82.4385422,67.2452908 81.7456469,67.2452908 L81.7456469,67.2452908 Z" transform="translate(-50 -52)"/>
</svg>
