<svg xmlns="http://www.w3.org/2000/svg" width="390" height="4" viewBox="0 0 390 4">
  <path fill="#C39E5F" fill-rule="evenodd" d="M263.781931,127.621438 C263.993026,127.578972 264.229971,127.555556 264.504472,127.555556 C265.585778,127.555556 266.084333,127.918778 266.715694,128.378639 C267.437083,128.904417 268.254917,129.5 269.842556,129.5 C271.430389,129.5 272.248028,128.904417 272.969611,128.378444 C273.600778,127.918778 274.099139,127.555556 275.180444,127.555556 C276.26175,127.555556 276.7605,127.918778 277.391667,128.378639 C278.11325,128.904417 278.930889,129.5 280.518722,129.5 C282.106556,129.5 282.924194,128.904417 283.645778,128.378639 C284.276944,127.918778 284.7755,127.555556 285.856806,127.555556 C286.937722,127.555556 287.436083,127.918778 288.067056,128.378444 C288.78825,128.904417 289.605889,129.5 291.193528,129.5 C292.781361,129.5 293.599,128.904417 294.320583,128.378639 C294.95175,127.918778 295.4505,127.555556 296.531611,127.555556 C297.612528,127.555556 298.110889,127.918778 298.74225,128.378444 C299.463639,128.904417 300.281278,129.5 301.868917,129.5 C303.45675,129.5 304.274389,128.904417 304.995778,128.378444 C305.626944,127.918778 306.125306,127.555556 307.206417,127.555556 C308.287528,127.555556 308.786083,127.918778 309.41725,128.378444 C310.138639,128.904417 310.956472,129.5 312.544111,129.5 C314.13175,129.5 314.949389,128.904417 315.670778,128.378444 C316.301944,127.918778 316.8005,127.555556 317.881417,127.555556 C318.962722,127.555556 319.461083,127.918778 320.09225,128.378444 C320.813833,128.904417 321.631472,129.5 323.219306,129.5 C324.807139,129.5 325.624778,128.904417 326.346361,128.378639 C326.977528,127.918778 327.476278,127.555556 328.557583,127.555556 C329.638694,127.555556 330.13725,127.918778 330.768611,128.378444 C331.49,128.904417 332.307833,129.5 333.895667,129.5 C335.483306,129.5 336.301139,128.904417 337.022528,128.378444 C337.653694,127.918778 338.152056,127.555556 339.233361,127.555556 C340.314472,127.555556 340.813028,127.918778 341.444194,128.378444 C342.165583,128.904417 342.983417,129.5 344.571056,129.5 C346.158889,129.5 346.976528,128.904417 347.698111,128.378444 C348.329278,127.918778 348.828028,127.555556 349.908944,127.555556 C350.99025,127.555556 351.488806,127.918778 352.119972,128.378639 C352.841556,128.904417 353.659194,129.5 355.247028,129.5 C356.835056,129.5 357.652889,128.904417 358.374472,128.378444 C359.005639,127.918778 359.504389,127.555556 360.585694,127.555556 C361.667,127.555556 362.165556,127.918778 362.796722,128.378639 C363.518306,128.904417 364.335944,129.5 365.923778,129.5 C367.511611,129.5 368.329444,128.904417 369.051028,128.378639 C369.682389,127.918778 370.180944,127.555556 371.26225,127.555556 C372.34375,127.555556 372.842306,127.918778 373.473667,128.378639 C374.195056,128.904417 375.012889,129.5 376.600722,129.5 C378.188556,129.5 379.006389,128.904417 379.727972,128.378639 C380.359139,127.918778 380.857694,127.555556 381.939194,127.555556 C383.0205,127.555556 383.51925,127.918778 384.150417,128.378639 C384.872,128.904417 385.689639,129.5 387.277472,129.5 C388.8655,129.5 389.683333,128.904417 390.404917,128.378639 C391.036278,127.918778 391.534833,127.555556 392.616333,127.555556 C393.697444,127.555556 394.196,127.918778 394.827167,128.378639 C395.548556,128.904417 396.366194,129.5 397.953833,129.5 C399.541667,129.5 400.3595,128.904417 401.081083,128.378444 C401.71225,127.918778 402.211,127.555556 403.292111,127.555556 C404.373611,127.555556 404.872167,127.918778 405.503333,128.378639 C406.224917,128.904417 407.042556,129.5 408.630389,129.5 C410.218222,129.5 411.036056,128.904417 411.757833,128.378639 C412.389194,127.918778 412.887944,127.555556 413.969444,127.555556 C415.050944,127.555556 415.5495,127.918778 416.180861,128.378639 C416.902639,128.904417 417.720472,129.5 419.3085,129.5 C420.896528,129.5 421.714361,128.904417 422.435944,128.378639 C423.067111,127.918778 423.566056,127.555556 424.647361,127.555556 C425.729056,127.555556 426.227611,127.918778 426.858972,128.378639 C427.58075,128.904417 428.398583,129.5 429.986611,129.5 C431.574833,129.5 432.392861,128.904417 433.114444,128.378639 C433.746,127.918778 434.244944,127.555556 435.326639,127.555556 C436.408528,127.555556 436.907278,127.918778 437.538833,128.378639 C438.260417,128.904417 439.078444,129.5 440.666667,129.5 L440.666667,127.944444 C439.584972,127.944444 439.086028,127.581222 438.454472,127.121361 C437.732889,126.595583 436.914861,126 435.326639,126 C433.738417,126 432.920389,126.595583 432.198806,127.121361 C431.56725,127.581222 431.0685,127.944444 429.986611,127.944444 C428.905111,127.944444 428.406361,127.581222 427.775,127.121361 C427.053222,126.595583 426.235389,126 424.647361,126 C423.059333,126 422.2415,126.595583 421.519917,127.121361 C420.88875,127.581222 420.39,127.944444 419.3085,127.944444 C418.227,127.944444 417.72825,127.581222 417.096694,127.121361 C416.375111,126.595583 415.557278,126 413.969444,126 C412.381417,126 411.563583,126.595583 410.841806,127.121361 C410.210639,127.581222 409.711889,127.944444 408.630389,127.944444 C407.549278,127.944444 407.050528,127.581222 406.419361,127.121556 C405.697778,126.595583 404.879944,126 403.292111,126 C401.704278,126 400.886639,126.595583 400.165056,127.121361 C399.533889,127.581222 399.035333,127.944444 397.953833,127.944444 C396.872722,127.944444 396.374361,127.581222 395.743194,127.121556 C395.021806,126.595583 394.204167,126 392.616333,126 C391.028306,126 390.210472,126.595583 389.488889,127.121361 C388.857528,127.581222 388.358778,127.944444 387.277472,127.944444 C386.196167,127.944444 385.697611,127.581222 385.066444,127.121556 C384.344861,126.595583 383.527028,126 381.939194,126 C380.351361,126 379.533528,126.595583 378.811944,127.121361 C378.180778,127.581222 377.682028,127.944444 376.600722,127.944444 C375.519417,127.944444 375.020861,127.581222 374.3895,127.121556 C373.668111,126.595583 372.850083,126 371.26225,126 C369.674417,126 368.856583,126.595583 368.135,127.121361 C367.503833,127.581222 367.005278,127.944444 365.923778,127.944444 C364.842667,127.944444 364.343917,127.581222 363.71275,127.121361 C362.991167,126.595583 362.173528,126 360.585694,126 C358.997861,126 358.180028,126.595583 357.458444,127.121361 C356.827278,127.581222 356.328528,127.944444 355.247028,127.944444 C354.165917,127.944444 353.667167,127.581222 353.036,127.121361 C352.314417,126.595583 351.496778,126 349.908944,126 C348.321306,126 347.503667,126.595583 346.782083,127.121361 C346.150917,127.581222 345.652167,127.944444 344.571056,127.944444 C343.48975,127.944444 342.991389,127.581222 342.360222,127.121556 C341.638833,126.595583 340.821,126 339.233361,126 C337.645722,126 336.827889,126.595583 336.1065,127.121556 C335.475333,127.581222 334.976778,127.944444 333.895667,127.944444 C332.814361,127.944444 332.315806,127.581222 331.684639,127.121361 C330.963056,126.595583 330.145222,126 328.557583,126 C326.96975,126 326.151917,126.595583 325.430333,127.121556 C324.799167,127.581222 324.300611,127.944444 323.219306,127.944444 C322.138194,127.944444 321.639444,127.581222 321.008278,127.121361 C320.286694,126.595583 319.469056,126 317.881417,126 C316.293778,126 315.476139,126.595583 314.75475,127.121556 C314.123583,127.581222 313.625222,127.944444 312.544111,127.944444 C311.462806,127.944444 310.964444,127.581222 310.333278,127.121556 C309.611889,126.595583 308.794056,126 307.206417,126 C305.618778,126 304.801139,126.595583 304.07975,127.121361 C303.448583,127.581222 302.950028,127.944444 301.868917,127.944444 C300.787806,127.944444 300.289444,127.581222 299.658083,127.121556 C298.936889,126.595583 298.119056,126 296.531611,126 C294.943778,126 294.126139,126.595583 293.404556,127.121361 C292.773389,127.581222 292.274833,127.944444 291.193528,127.944444 C290.112611,127.944444 289.614056,127.581222 288.983083,127.121556 C288.261889,126.595583 287.44425,126 285.856806,126 C284.268972,126 283.451333,126.595583 282.72975,127.121361 C282.098583,127.581222 281.599833,127.944444 280.518722,127.944444 C279.437417,127.944444 278.938861,127.581222 278.307694,127.121556 C277.586111,126.595583 276.768278,126 275.180444,126 C273.592806,126 272.774972,126.595583 272.053583,127.121361 C271.422417,127.581222 270.923667,127.944444 269.842556,127.944444 C268.76125,127.944444 268.262889,127.581222 267.631528,127.121556 C266.910139,126.595583 266.092306,126 264.504472,126 C264.243878,126 264.004024,126.016046 263.781931,126.045197 L263.781931,127.621438 Z M229.445483,128.92713 C228.878889,129.248027 228.17191,129.5 227.13925,129.5 C225.551611,129.5 224.733778,128.904417 224.012389,128.378444 C223.381222,127.918778 222.882861,127.555556 221.801556,127.555556 C220.720444,127.555556 220.221694,127.918778 219.590528,128.378639 C218.868944,128.904417 218.051306,129.5 216.463472,129.5 C214.875639,129.5 214.058,128.904417 213.336611,128.378444 C212.705444,127.918778 212.206889,127.555556 211.125972,127.555556 C210.044667,127.555556 209.546111,127.918778 208.914944,128.378639 C208.193361,128.904417 207.375722,129.5 205.787889,129.5 C204.20025,129.5 203.382417,128.904417 202.661028,128.378444 C202.029861,127.918778 201.531306,127.555556 200.450389,127.555556 C199.369083,127.555556 198.870528,127.918778 198.239167,128.378639 C197.517778,128.904417 196.699944,129.5 195.112111,129.5 C193.524472,129.5 192.706833,128.904417 191.985444,128.378639 C191.354278,127.918778 190.855917,127.555556 189.774611,127.555556 C188.6935,127.555556 188.194944,127.918778 187.563778,128.378444 C186.842194,128.904417 186.024556,129.5 184.436722,129.5 C182.849083,129.5 182.031444,128.904417 181.310056,128.378639 C180.678889,127.918778 180.180333,127.555556 179.099222,127.555556 C178.017917,127.555556 177.519361,127.918778 176.888194,128.378639 C176.166611,128.904417 175.348972,129.5 173.761139,129.5 C172.1735,129.5 171.355861,128.904417 170.634472,128.378444 C170.003306,127.918778 169.50475,127.555556 168.423833,127.555556 C167.342528,127.555556 166.844167,127.918778 166.212806,128.378444 C165.491417,128.904417 164.673583,129.5 163.085944,129.5 C161.498111,129.5 160.680472,128.904417 159.959083,128.378444 C159.327917,127.918778 158.829556,127.555556 157.748444,127.555556 C156.667333,127.555556 156.168778,127.918778 155.537611,128.378639 C154.816222,128.904417 153.998583,129.5 152.410944,129.5 C150.823306,129.5 150.005472,128.904417 149.284083,128.378639 C148.652917,127.918778 148.154167,127.555556 147.073056,127.555556 C145.991944,127.555556 145.493583,127.918778 144.862417,128.378444 C144.141028,128.904417 143.323389,129.5 141.73575,129.5 C140.147917,129.5 139.330278,128.904417 138.608889,128.378444 C137.977528,127.918778 137.479167,127.555556 136.398056,127.555556 C135.316944,127.555556 134.818389,127.918778 134.187222,128.378444 C133.465833,128.904417 132.648,129.5 131.060361,129.5 C129.472722,129.5 128.655083,128.904417 127.933694,128.378444 C127.302528,127.918778 126.804167,127.555556 125.72325,127.555556 C124.641944,127.555556 124.143583,127.918778 123.512417,128.378444 C122.791028,128.904417 121.973194,129.5 120.385556,129.5 C118.797917,129.5 117.980278,128.904417 117.258889,128.378639 C116.627722,127.918778 116.129167,127.555556 115.048056,127.555556 C113.966944,127.555556 113.468583,127.918778 112.837417,128.378444 C112.116028,128.904417 111.298194,129.5 109.71075,129.5 C108.123111,129.5 107.305472,128.904417 106.584083,128.378639 C105.952917,127.918778 105.454556,127.555556 104.37325,127.555556 C103.292139,127.555556 102.793583,127.918778 102.162417,128.378639 C101.441028,128.904417 100.623389,129.5 99.03575,129.5 C97.4481111,129.5 96.6304722,128.904417 95.9090833,128.378444 C95.2779167,127.918778 94.7793611,127.555556 93.6986389,127.555556 C92.6175278,127.555556 92.1191667,127.918778 91.488,128.378444 C90.7666111,128.904417 89.9489722,129.5 88.3613333,129.5 C86.7735,129.5 85.9556667,128.904417 85.2342778,128.378444 C84.6031111,127.918778 84.1045556,127.555556 83.0234444,127.555556 C81.9423333,127.555556 81.4437778,127.918778 80.8128056,128.378444 C80.0914167,128.904417 79.2737778,129.5 77.6861389,129.5 C76.0986944,129.5 75.2810556,128.904417 74.5596667,128.378444 C73.9285,127.918778 73.4299444,127.555556 72.3490278,127.555556 C71.2681111,127.555556 70.7695556,127.918778 70.1383889,128.378444 C69.417,128.904417 68.5993611,129.5 67.0117222,129.5 C65.4240833,129.5 64.6064444,128.904417 63.8848611,128.378444 C63.2536944,127.918778 62.7551389,127.555556 61.6740278,127.555556 C60.5931111,127.555556 60.0945556,127.918778 59.4635833,128.378444 C58.7421944,128.904417 57.9245556,129.5 56.3369167,129.5 C54.7494722,129.5 53.9318333,128.904417 53.2104444,128.378444 C52.5794722,127.918778 52.0809167,127.555556 51,127.555556 L51,126 C52.5876389,126 53.4052778,126.595583 54.1264722,127.121556 C54.7576389,127.581222 55.256,127.944444 56.3369167,127.944444 C57.4178333,127.944444 57.9163889,127.581222 58.5475556,127.121556 C59.2689444,126.595583 60.0863889,126 61.6740278,126 C63.2618611,126 64.0795,126.595583 64.8008889,127.121556 C65.4320556,127.581222 65.9306111,127.944444 67.0117222,127.944444 C68.0928333,127.944444 68.5911944,127.581222 69.2223611,127.121556 C69.94375,126.595583 70.7613889,126 72.3490278,126 C73.9366667,126 74.7543056,126.595583 75.4756944,127.121556 C76.1066667,127.581222 76.6052222,127.944444 77.6861389,127.944444 C78.7670556,127.944444 79.2656111,127.581222 79.8967778,127.121556 C80.6181667,126.595583 81.4358056,126 83.0234444,126 C84.6110833,126 85.4287222,126.595583 86.1503056,127.121361 C86.7814722,127.581222 87.2800278,127.944444 88.3613333,127.944444 C89.44225,127.944444 89.9408056,127.581222 90.5719722,127.121556 C91.2933611,126.595583 92.111,126 93.6986389,126 C95.2860833,126 96.1037222,126.595583 96.8251111,127.121556 C97.4562778,127.581222 97.9546389,127.944444 99.03575,127.944444 C100.116861,127.944444 100.615222,127.581222 101.246389,127.121556 C101.967778,126.595583 102.785417,126 104.37325,126 C105.961083,126 106.778722,126.595583 107.500111,127.121556 C108.131278,127.581222 108.629833,127.944444 109.71075,127.944444 C110.791667,127.944444 111.290028,127.581222 111.921389,127.121556 C112.642778,126.595583 113.460417,126 115.048056,126 C116.635889,126 117.453528,126.595583 118.174917,127.121556 C118.806083,127.581222 119.304444,127.944444 120.385556,127.944444 C121.466667,127.944444 121.965222,127.581222 122.596389,127.121556 C123.317778,126.595583 124.135611,126 125.72325,126 C127.310694,126 128.128333,126.595583 128.849722,127.121556 C129.480889,127.581222 129.979444,127.944444 131.060361,127.944444 C132.141667,127.944444 132.640028,127.581222 133.271194,127.121556 C133.992583,126.595583 134.810417,126 136.398056,126 C137.985694,126 138.803528,126.595583 139.524917,127.121361 C140.156083,127.581222 140.654444,127.944444 141.73575,127.944444 C142.816667,127.944444 143.315222,127.581222 143.946389,127.121556 C144.667778,126.595583 145.485417,126 147.073056,126 C148.660889,126 149.478528,126.595583 150.200111,127.121556 C150.831278,127.581222 151.329639,127.944444 152.410944,127.944444 C153.492056,127.944444 153.990417,127.581222 154.621583,127.121556 C155.342972,126.595583 156.160611,126 157.748444,126 C159.336083,126 160.153722,126.595583 160.875111,127.121361 C161.506278,127.581222 162.004833,127.944444 163.085944,127.944444 C164.16725,127.944444 164.665611,127.581222 165.296778,127.121556 C166.018167,126.595583 166.836194,126 168.423833,126 C170.011472,126 170.829111,126.595583 171.5505,127.121556 C172.181667,127.581222 172.680028,127.944444 173.761139,127.944444 C174.84225,127.944444 175.341,127.581222 175.972167,127.121361 C176.69375,126.595583 177.511389,126 179.099222,126 C180.687056,126 181.504694,126.595583 182.226083,127.121556 C182.85725,127.581222 183.355806,127.944444 184.436722,127.944444 C185.518028,127.944444 186.016583,127.581222 186.64775,127.121361 C187.369139,126.595583 188.186972,126 189.774611,126 C191.36225,126 192.180083,126.595583 192.901472,127.121556 C193.532639,127.581222 194.031194,127.944444 195.112111,127.944444 C196.193417,127.944444 196.691972,127.581222 197.323333,127.121361 C198.044722,126.595583 198.862556,126 200.450389,126 C202.038028,126 202.855667,126.595583 203.577056,127.121361 C204.208222,127.581222 204.706583,127.944444 205.787889,127.944444 C206.869,127.944444 207.36775,127.581222 207.998917,127.121361 C208.7205,126.595583 209.538139,126 211.125972,126 C212.713611,126 213.53125,126.595583 214.252639,127.121361 C214.883806,127.581222 215.382361,127.944444 216.463472,127.944444 C217.544778,127.944444 218.043333,127.581222 218.6745,127.121361 C219.396083,126.595583 220.213722,126 221.801556,126 C223.389194,126 224.207028,126.595583 224.928417,127.121556 C225.559583,127.581222 226.058139,127.944444 227.13925,127.944444 C228.220556,127.944444 228.718917,127.581222 229.350083,127.121556 C229.381679,127.098519 229.41346,127.075349 229.445483,127.052101 L229.445483,128.92713 Z" transform="translate(-51 -126)"/>
</svg>
